<svg width="18" height="13" viewBox="0 0 18 13" fill="none" xmlns="http://www.w3.org/2000/svg">
<path d="M11.64 6.66699C11.64 9.78188 9.11488 12.307 6 12.307C2.88511 12.307 0.36 9.78188 0.36 6.66699C0.36 3.55211 2.88511 1.02699 6 1.02699C9.11488 1.02699 11.64 3.55211 11.64 6.66699Z" stroke="#0E1AFB" stroke-width="0.72"/>
<path d="M17.639 6.66699C17.639 9.78188 15.1139 12.307 11.999 12.307C8.88414 12.307 6.35902 9.78188 6.35902 6.66699C6.35902 3.55211 8.88414 1.02699 11.999 1.02699C15.1139 1.02699 17.639 3.55211 17.639 6.66699Z" stroke="#0E1AFB" stroke-width="0.72"/>
<mask id="path-3-inside-1_1301_587" fill="white">
<path fill-rule="evenodd" clip-rule="evenodd" d="M8.97925 11.8515C10.7838 10.817 11.9995 8.87176 11.9995 6.64257C11.9995 4.43009 10.802 2.49731 9.01977 1.45703C7.2152 2.49155 5.99951 4.43681 5.99951 6.666C5.99951 8.87848 7.19703 10.8113 8.97925 11.8515Z"/>
</mask>
<path fill-rule="evenodd" clip-rule="evenodd" d="M8.97925 11.8515C10.7838 10.817 11.9995 8.87176 11.9995 6.64257C11.9995 4.43009 10.802 2.49731 9.01977 1.45703C7.2152 2.49155 5.99951 4.43681 5.99951 6.666C5.99951 8.87848 7.19703 10.8113 8.97925 11.8515Z" fill="url(#paint0_linear_1301_587)"/>
<path d="M8.97925 11.8515L8.6163 12.4734L8.976 12.6833L9.33734 12.4762L8.97925 11.8515ZM9.01977 1.45703L9.38272 0.835209L9.02301 0.625248L8.66168 0.832394L9.01977 1.45703ZM11.2795 6.64257C11.2795 8.60334 10.2111 10.3155 8.62116 11.2269L9.33734 12.4762C11.3566 11.3186 12.7195 9.14018 12.7195 6.64257H11.2795ZM8.65681 2.07885C10.227 2.9954 11.2795 4.69648 11.2795 6.64257H12.7195C12.7195 4.1637 11.3769 1.99923 9.38272 0.835209L8.65681 2.07885ZM6.71951 6.666C6.71951 4.70523 7.78796 2.99312 9.37786 2.08167L8.66168 0.832394C6.64244 1.98997 5.27951 4.16838 5.27951 6.666H6.71951ZM9.34221 11.2297C7.77197 10.3132 6.71951 8.61208 6.71951 6.666H5.27951C5.27951 9.14487 6.62209 11.3093 8.6163 12.4734L9.34221 11.2297Z" fill="#0E1AFB" mask="url(#path-3-inside-1_1301_587)"/>
<defs>
<linearGradient id="paint0_linear_1301_587" x1="8.99951" y1="1.44563" x2="8.99951" y2="11.8402" gradientUnits="userSpaceOnUse">
<stop stop-color="#0A2472" stop-opacity="0.3"/>
<stop offset="1" stop-color="#0A2472" stop-opacity="0.03"/>
</linearGradient>
</defs>
</svg>
