<svg width="187" height="34" viewBox="0 0 187 34" fill="none" xmlns="http://www.w3.org/2000/svg">
<path fill-rule="evenodd" clip-rule="evenodd" d="M16.6667 31.3333C24.7668 31.3333 31.3333 24.7668 31.3333 16.6667C31.3333 8.56649 24.7668 2 16.6667 2C8.56649 2 2 8.56649 2 16.6667C2 24.7668 8.56649 31.3333 16.6667 31.3333ZM16.6667 33.3333C25.8714 33.3333 33.3333 25.8714 33.3333 16.6667C33.3333 7.46192 25.8714 0 16.6667 0C7.46192 0 0 7.46192 0 16.6667C0 25.8714 7.46192 33.3333 16.6667 33.3333Z" fill="white"/>
<path fill-rule="evenodd" clip-rule="evenodd" d="M33.3312 31.3333C41.4314 31.3333 47.9979 24.7668 47.9979 16.6667C47.9979 8.56649 41.4314 2 33.3312 2C25.231 2 18.6646 8.56649 18.6646 16.6667C18.6646 24.7668 25.231 31.3333 33.3312 31.3333ZM33.3312 33.3333C42.536 33.3333 49.9979 25.8714 49.9979 16.6667C49.9979 7.46192 42.536 0 33.3312 0C24.1265 0 16.6646 7.46192 16.6646 16.6667C16.6646 25.8714 24.1265 33.3333 33.3312 33.3333Z" fill="white"/>
<path fill-rule="evenodd" clip-rule="evenodd" d="M24.9427 31.0781C29.9552 28.2044 33.3319 22.801 33.3319 16.609C33.3319 10.4628 30.005 5.09362 25.0538 2.2041C20.0413 5.07781 16.6646 10.4812 16.6646 16.6732C16.6646 22.8194 19.9915 28.1886 24.9427 31.0781Z" fill="url(#paint0_linear_1320_232)"/>
<path fill-rule="evenodd" clip-rule="evenodd" d="M24.9518 28.7124C28.808 26.0669 31.3319 21.6317 31.3319 16.609C31.3319 11.6268 28.8486 7.2226 25.0447 4.56986C21.1884 7.2153 18.6646 11.6506 18.6646 16.6732C18.6646 21.6555 21.1479 26.0596 24.9518 28.7124ZM24.9427 31.0781C19.9915 28.1886 16.6646 22.8194 16.6646 16.6732C16.6646 10.4812 20.0413 5.07781 25.0538 2.2041C30.005 5.09362 33.3319 10.4628 33.3319 16.609C33.3319 22.801 29.9552 28.2044 24.9427 31.0781Z" fill="white"/>
<path d="M176.61 18.1522V15.3362H179.58C180.225 15.3362 180.717 15.1822 181.054 14.8742C181.406 14.5515 181.582 14.1188 181.582 13.5762C181.582 13.0482 181.406 12.6228 181.054 12.3002C180.717 11.9628 180.225 11.7942 179.58 11.7942H176.61V8.86816H180.13C181.186 8.86816 182.11 9.06616 182.902 9.46216C183.709 9.85816 184.339 10.4008 184.794 11.0902C185.249 11.7795 185.476 12.5862 185.476 13.5102C185.476 14.4342 185.241 15.2482 184.772 15.9522C184.317 16.6415 183.679 17.1842 182.858 17.5802C182.037 17.9615 181.076 18.1522 179.976 18.1522H176.61ZM173.486 24.4662V8.86816H177.424V24.4662H173.486ZM181.934 24.4662L177.402 17.7782L180.944 16.9202L186.488 24.4662H181.934Z" fill="white"/>
<path d="M164.104 24.752C162.901 24.752 161.794 24.5467 160.782 24.136C159.77 23.7254 158.882 23.1534 158.12 22.42C157.372 21.6867 156.785 20.8287 156.36 19.846C155.934 18.8487 155.722 17.778 155.722 16.634C155.722 15.49 155.927 14.434 156.338 13.466C156.763 12.4834 157.35 11.6254 158.098 10.892C158.846 10.1587 159.726 9.59403 160.738 9.19803C161.75 8.78736 162.857 8.58203 164.06 8.58203C165.262 8.58203 166.37 8.78736 167.382 9.19803C168.394 9.59403 169.274 10.1587 170.022 10.892C170.77 11.6254 171.349 12.4834 171.76 13.466C172.185 14.4487 172.398 15.512 172.398 16.656C172.398 17.8 172.185 18.8634 171.76 19.846C171.349 20.8287 170.77 21.694 170.022 22.442C169.274 23.1754 168.394 23.7474 167.382 24.158C166.384 24.554 165.292 24.752 164.104 24.752ZM164.06 21.232C164.94 21.232 165.702 21.0414 166.348 20.66C166.993 20.2787 167.492 19.7434 167.844 19.054C168.196 18.3647 168.372 17.558 168.372 16.634C168.372 15.9594 168.269 15.3434 168.064 14.786C167.873 14.2287 167.587 13.752 167.206 13.356C166.824 12.9454 166.37 12.63 165.842 12.41C165.314 12.19 164.72 12.08 164.06 12.08C163.18 12.08 162.417 12.2707 161.772 12.652C161.126 13.0187 160.628 13.5467 160.276 14.236C159.924 14.9254 159.748 15.7247 159.748 16.634C159.748 17.338 159.843 17.976 160.034 18.548C160.239 19.1054 160.532 19.5894 160.914 20C161.295 20.396 161.75 20.704 162.278 20.924C162.806 21.1294 163.4 21.232 164.06 21.232Z" fill="white"/>
<path d="M149.044 24.7065C147.739 24.7065 146.602 24.5085 145.634 24.1125C144.681 23.7165 143.808 23.0932 143.016 22.2425L145.502 19.7345C146.045 20.3065 146.624 20.7465 147.24 21.0545C147.856 21.3479 148.553 21.4945 149.33 21.4945C149.99 21.4945 150.496 21.3845 150.848 21.1645C151.215 20.9299 151.398 20.6145 151.398 20.2185C151.398 19.8519 151.266 19.5512 151.002 19.3165C150.738 19.0672 150.386 18.8545 149.946 18.6785C149.521 18.4879 149.044 18.3119 148.516 18.1505C148.003 17.9745 147.482 17.7692 146.954 17.5345C146.441 17.2852 145.964 16.9845 145.524 16.6325C145.099 16.2805 144.754 15.8405 144.49 15.3125C144.226 14.7845 144.094 14.1319 144.094 13.3545C144.094 12.3572 144.329 11.5065 144.798 10.8025C145.282 10.0985 145.949 9.55587 146.8 9.17454C147.651 8.79321 148.641 8.60254 149.77 8.60254C150.899 8.60254 151.941 8.79321 152.894 9.17454C153.847 9.55587 154.632 10.0839 155.248 10.7585L152.74 13.2445C152.271 12.7752 151.794 12.4232 151.31 12.1885C150.826 11.9539 150.298 11.8365 149.726 11.8365C149.183 11.8365 148.758 11.9319 148.45 12.1225C148.142 12.3132 147.988 12.5845 147.988 12.9365C147.988 13.2885 148.12 13.5745 148.384 13.7945C148.648 14.0145 148.993 14.2125 149.418 14.3885C149.858 14.5499 150.335 14.7185 150.848 14.8945C151.376 15.0705 151.897 15.2759 152.41 15.5105C152.923 15.7452 153.393 16.0459 153.818 16.4125C154.258 16.7792 154.61 17.2412 154.874 17.7985C155.138 18.3559 155.27 19.0305 155.27 19.8225C155.27 21.3772 154.72 22.5799 153.62 23.4305C152.535 24.2812 151.009 24.7065 149.044 24.7065Z" fill="white"/>
<path d="M138.637 24.4662V8.86816H142.575V24.4662H138.637Z" fill="white"/>
<path d="M128.369 24.4662L122.495 8.86816H126.697L131.097 21.4742H129.293L133.759 8.86816H137.873L131.933 24.4662H128.369Z" fill="white"/>
<path d="M110.446 24.4662V21.0782H114.186C115.066 21.0782 115.829 20.9095 116.474 20.5722C117.134 20.2348 117.64 19.7362 117.992 19.0762C118.344 18.4015 118.52 17.5875 118.52 16.6342C118.52 15.6955 118.337 14.9035 117.97 14.2582C117.618 13.5982 117.12 13.0995 116.474 12.7622C115.829 12.4248 115.066 12.2562 114.186 12.2562H110.27V8.86816H114.208C115.411 8.86816 116.518 9.05883 117.53 9.44016C118.542 9.80683 119.422 10.3348 120.17 11.0242C120.918 11.7135 121.498 12.5348 121.908 13.4882C122.334 14.4415 122.546 15.4975 122.546 16.6562C122.546 17.8295 122.334 18.8928 121.908 19.8462C121.498 20.7995 120.918 21.6208 120.17 22.3102C119.422 22.9995 118.542 23.5348 117.53 23.9162C116.533 24.2828 115.44 24.4662 114.252 24.4662H110.446ZM107.784 24.4662V8.86816H111.722V24.4662H107.784Z" fill="white"/>
<path d="M91.3638 24.4662L97.4138 8.86816H101.22L107.204 24.4662H103.09L98.5798 11.3542H100.01L95.3898 24.4662H91.3638ZM95.0378 21.7382V18.6142H103.64V21.7382H95.0378Z" fill="white"/>
<path d="M76.4829 21.7382L84.0069 11.5962H88.7589L81.2349 21.7382H76.4829ZM76.4829 24.4662V21.7382L78.8369 21.1662H88.5829V24.4662H76.4829ZM76.8789 12.1682V8.86816H88.7589V11.5962L86.3829 12.1682H76.8789Z" fill="white"/>
<path d="M71.4287 24.4662V8.86816H75.3667V24.4662H71.4287Z" fill="white"/>
<path d="M61.124 24.4662V21.5402H64.38C64.996 21.5402 65.48 21.3715 65.832 21.0342C66.1987 20.6822 66.382 20.2275 66.382 19.6702C66.382 19.3035 66.3013 18.9808 66.14 18.7022C65.9787 18.4088 65.744 18.1888 65.436 18.0422C65.1427 17.8808 64.7907 17.8002 64.38 17.8002H61.124V14.9622H64.138C64.6513 14.9622 65.0693 14.8375 65.392 14.5882C65.7293 14.3242 65.898 13.9208 65.898 13.3782C65.898 12.8355 65.7293 12.4395 65.392 12.1902C65.0693 11.9262 64.6513 11.7942 64.138 11.7942H61.124V8.86816H65.084C66.052 8.86816 66.888 9.0515 67.592 9.41816C68.3107 9.78483 68.8607 10.2762 69.242 10.8922C69.6233 11.5082 69.814 12.2048 69.814 12.9822C69.814 14.0235 69.4547 14.8888 68.736 15.5782C68.032 16.2528 67.0053 16.6708 65.656 16.8322V15.5122C67.152 15.6882 68.296 16.1722 69.088 16.9642C69.88 17.7415 70.276 18.7242 70.276 19.9122C70.276 20.7922 70.056 21.5768 69.616 22.2662C69.176 22.9408 68.5527 23.4762 67.746 23.8722C66.954 24.2682 66.0153 24.4662 64.93 24.4662H61.124ZM58 24.4662V8.86816H61.872V24.4662H58Z" fill="white"/>
<defs>
<linearGradient id="paint0_linear_1320_232" x1="24.9982" y1="2.17244" x2="24.9982" y2="31.0467" gradientUnits="userSpaceOnUse">
<stop stop-color="#0A2472" stop-opacity="0.3"/>
<stop offset="1" stop-color="#0A2472" stop-opacity="0.03"/>
</linearGradient>
</defs>
</svg>
